<svg viewBox="0 0 1024 1024" xmlns="http://www.w3.org/2000/svg" role="img" aria-label="LendFest">
  <circle cx="512.0" cy="512.0" r="512.0" fill="#0A183F"/>
  <path fill="#ffffff" fill-rule="evenodd" d="M739.0,801.5 L268.0,801.5 L262.5,798.0 L261.5,225.0 L264.0,221.5 L268.0,219.5 L368.0,219.5 L374.5,226.0 L375.5,685.0 L380.0,688.5 L665.0,688.5 L690.0,692.5 L702.0,697.5 L719.0,709.5 L729.5,721.0 L740.5,741.0 L745.5,765.0 L745.5,795.0 L739.0,801.5 Z M530.0,636.5 L432.0,636.5 L426.5,631.0 L426.5,301.0 L430.5,280.0 L439.5,261.0 L447.5,250.0 L468.0,232.5 L482.0,225.5 L501.0,220.5 L796.0,220.5 L799.5,225.0 L799.5,271.0 L794.5,289.0 L784.0,306.5 L772.0,318.5 L755.0,328.5 L738.0,332.5 L542.0,332.5 L536.5,337.0 L537.0,414.5 L738.0,414.5 L743.0,416.5 L745.5,421.0 L745.5,477.0 L741.5,493.0 L732.5,507.0 L718.0,518.5 L707.0,522.5 L540.0,524.5 L536.5,529.0 L536.5,630.0 L530.0,636.5 Z"/>
</svg>
