<svg viewBox="0 0 100 100" xmlns="http://www.w3.org/2000/svg" role="img" aria-label="LendFest">
  <defs>
    <linearGradient id="lf" x1="0" y1="0" x2="1" y2="1">
      <stop offset="0" stop-color="#22B488"/>
      <stop offset="1" stop-color="#0A5C4C"/>
    </linearGradient>
  </defs>
  <rect width="100" height="100" rx="24" fill="url(#lf)"/>
  <g transform="translate(5.9,10.85) scale(0.9)" fill="#FBF7EF">
    <rect x="14" y="58" width="17" height="26" rx="7"/>
    <rect x="39" y="44" width="17" height="40" rx="7"/>
    <rect x="64" y="30" width="17" height="54" rx="7"/>
    <path d="M70 3 Q75 12 84 17 Q75 22 70 31 Q65 22 56 17 Q65 12 70 3 Z"/>
    <path d="M26 38 Q28.5 43 33 45 Q28.5 47 26 52 Q23.5 47 19 45 Q23.5 43 26 38 Z" opacity="0.5"/>
  </g>
</svg>
